HIERARCHY
ROOT newVegas:Hips
{
	OFFSET 0.000000 96.479958 0.000000
	CHANNELS 6 Xposition Yposition Zposition Xrotation Yrotation Zrotation
	JOINT newVegas:Pelvis
	{
		OFFSET 0.000000 0.000000 0.000000
		CHANNELS 3 Xrotation Yrotation Zrotation
		JOINT newVegas:LeftUpLeg
		{
			OFFSET 18.735201 -5.666702 -4.541200
			CHANNELS 3 Xrotation Yrotation Zrotation
			JOINT newVegas:LeftLeg
			{
				OFFSET -0.021200 -31.938179 0.493100
				CHANNELS 3 Xrotation Yrotation Zrotation
				JOINT newVegas:LeftFoot
				{
					OFFSET 0.021200 -31.938179 -4.336299
					CHANNELS 3 Xrotation Yrotation Zrotation
					JOINT newVegas:LeftToeBase
					{
						OFFSET 0.943001 -26.722000 15.023500
						CHANNELS 3 Xrotation Yrotation Zrotation
						End Site
						{
							OFFSET 0.000000 30.670183 0.000000
						}
					}
				}
				JOINT newVegas:Left_PantLeg
				{
					OFFSET 0.663870 -9.044666 -1.108900
					CHANNELS 3 Xrotation Yrotation Zrotation
					End Site
					{
						OFFSET 1.415995 20.635357 0.000000
					}
				}
			}
		}
		JOINT newVegas:RightUpLeg
		{
			OFFSET -18.735201 -5.666702 -4.541200
			CHANNELS 3 Xrotation Yrotation Zrotation
			JOINT newVegas:RightLeg
			{
				OFFSET 0.018946 -31.938133 0.493100
				CHANNELS 3 Xrotation Yrotation Zrotation
				JOINT newVegas:RightFoot
				{
					OFFSET -0.018946 -31.938126 -4.336299
					CHANNELS 3 Xrotation Yrotation Zrotation
					JOINT newVegas:RightToeBase
					{
						OFFSET -0.943001 -26.722004 15.023500
						CHANNELS 3 Xrotation Yrotation Zrotation
						End Site
						{
							OFFSET 0.000000 30.670187 0.000000
						}
					}
				}
				JOINT newVegas:Right_PantLeg
				{
					OFFSET -0.661674 -9.044716 -1.108900
					CHANNELS 3 Xrotation Yrotation Zrotation
					End Site
					{
						OFFSET -1.415958 20.635269 0.000000
					}
				}
			}
		}
	}
	JOINT newVegas:Spine
	{
		OFFSET 0.000000 10.199997 -0.299500
		CHANNELS 3 Xrotation Yrotation Zrotation
		JOINT newVegas:Spine1
		{
			OFFSET 0.000000 11.900002 -1.516600
			CHANNELS 3 Xrotation Yrotation Zrotation
			JOINT newVegas:Spine2
			{
				OFFSET 0.000000 13.600006 -2.842500
				CHANNELS 3 Xrotation Yrotation Zrotation
				JOINT newVegas:Neck
				{
					OFFSET 0.000000 9.624100 -2.890100
					CHANNELS 3 Xrotation Yrotation Zrotation
					JOINT newVegas:Head
					{
						OFFSET 0.000000 14.068802 -1.351900
						CHANNELS 3 Xrotation Yrotation Zrotation
						JOINT newVegas:Hair_Back
						{
							OFFSET 0.000000 3.231903 -17.524799
							CHANNELS 3 Xrotation Yrotation Zrotation
							End Site
							{
								OFFSET 0.000000 19.849884 0.000000
							}
						}
						JOINT newVegas:Hair_Front
						{
							OFFSET 0.000000 31.260406 4.573800
							CHANNELS 3 Xrotation Yrotation Zrotation
							JOINT newVegas:Hair_Front1
							{
								OFFSET 0.000000 2.284103 11.993300
								CHANNELS 3 Xrotation Yrotation Zrotation
								JOINT newVegas:Hair_Front2
								{
									OFFSET 0.000000 2.284103 11.993300
									CHANNELS 3 Xrotation Yrotation Zrotation
									End Site
									{
										OFFSET 0.000000 12.208862 0.000000
									}
								}
							}
						}
						JOINT newVegas:Jowel
						{
							OFFSET 0.000000 -7.458206 6.864100
							CHANNELS 3 Xrotation Yrotation Zrotation
							End Site
							{
								OFFSET 0.000000 19.849884 0.000000
							}
						}
					}
				}
				JOINT newVegas:LeftShoulder
				{
					OFFSET 15.263000 10.923401 -0.547700
					CHANNELS 3 Xrotation Yrotation Zrotation
					JOINT newVegas:LeftArm
					{
						OFFSET 25.438599 -2.830597 -13.032500
						CHANNELS 3 Xrotation Yrotation Zrotation
						JOINT newVegas:LeftForeArm
						{
							OFFSET 29.960503 0.000000 0.000000
							CHANNELS 3 Xrotation Yrotation Zrotation
							JOINT newVegas:LeftHand
							{
								OFFSET 27.849251 0.000000 0.000000
								CHANNELS 3 Xrotation Yrotation Zrotation
								JOINT newVegas:LeftHandThumb1
								{
									OFFSET 4.487587 -3.305161 6.305391
									CHANNELS 3 Xrotation Yrotation Zrotation
									JOINT newVegas:LeftHandThumb2
									{
										OFFSET 5.480453 -3.164139 3.164143
										CHANNELS 3 Xrotation Yrotation Zrotation
										JOINT newVegas:LeftHandThumb3
										{
											OFFSET 5.159721 -2.978973 2.978967
											CHANNELS 3 Xrotation Yrotation Zrotation
											End Site
											{
												OFFSET 2.494507 5.926697 1.738678
											}
										}
									}
								}
								JOINT newVegas:LeftHandIndex1
								{
									OFFSET 18.578728 -0.527832 5.208049
									CHANNELS 3 Xrotation Yrotation Zrotation
									JOINT newVegas:LeftHandIndex2
									{
										OFFSET 3.192009 0.000000 0.000000
										CHANNELS 3 Xrotation Yrotation Zrotation
										JOINT newVegas:LeftHandIndex3
										{
											OFFSET 3.835129 0.000000 0.000000
											CHANNELS 3 Xrotation Yrotation Zrotation
											End Site
											{
												OFFSET -0.034599 3.816971 0.371180
											}
										}
									}
								}
								JOINT newVegas:LeftHandMiddle1
								{
									OFFSET 18.476105 0.000000 0.000000
									CHANNELS 3 Xrotation Yrotation Zrotation
									JOINT newVegas:LeftHandMiddle2
									{
										OFFSET 3.324875 0.000000 0.000000
										CHANNELS 3 Xrotation Yrotation Zrotation
										JOINT newVegas:LeftHandMiddle3
										{
											OFFSET 4.596550 0.000000 0.000000
											CHANNELS 3 Xrotation Yrotation Zrotation
											End Site
											{
												OFFSET 0.057701 4.578827 0.399218
											}
										}
									}
								}
								JOINT newVegas:LeftHandRing1
								{
									OFFSET 17.732719 0.121887 -4.201567
									CHANNELS 3 Xrotation Yrotation Zrotation
									JOINT newVegas:LeftHandRing2
									{
										OFFSET 2.733170 0.000000 0.000000
										CHANNELS 3 Xrotation Yrotation Zrotation
										JOINT newVegas:LeftHandRing3
										{
											OFFSET 3.178268 0.000000 0.000000
											CHANNELS 3 Xrotation Yrotation Zrotation
											End Site
											{
												OFFSET 0.119102 3.170624 0.185394
											}
										}
									}
								}
								JOINT newVegas:LeftHandPinky1
								{
									OFFSET 15.989624 -0.606689 -7.535461
									CHANNELS 3 Xrotation Yrotation Zrotation
									JOINT newVegas:LeftHandPinky2
									{
										OFFSET 2.538986 0.000000 0.000000
										CHANNELS 3 Xrotation Yrotation Zrotation
										JOINT newVegas:LeftHandPinky3
										{
											OFFSET 2.593102 0.000000 0.000000
											CHANNELS 3 Xrotation Yrotation Zrotation
											End Site
											{
												OFFSET -0.150902 2.584198 0.152708
											}
										}
									}
								}
							}
							JOINT newVegas:Left_Sleeve
							{
								OFFSET 0.267448 -0.649796 0.577675
								CHANNELS 3 Xrotation Yrotation Zrotation
								End Site
								{
									OFFSET 0.000000 15.991241 0.000000
								}
							}
							JOINT newVegas:Left_CapeC
							{
								OFFSET 15.715958 -8.608795 -6.935905
								CHANNELS 3 Xrotation Yrotation Zrotation
								JOINT newVegas:Left_CapeC1
								{
									OFFSET 0.000000 -8.688499 0.000000
									CHANNELS 3 Xrotation Yrotation Zrotation
									End Site
									{
										OFFSET 0.000000 8.688499 0.000000
									}
								}
							}
						}
						JOINT newVegas:Left_CapeB
						{
							OFFSET 26.118385 -8.608795 -7.079235
							CHANNELS 3 Xrotation Yrotation Zrotation
							JOINT newVegas:Left_CapeB1
							{
								OFFSET 0.000000 -8.688499 0.000000
								CHANNELS 3 Xrotation Yrotation Zrotation
								End Site
								{
									OFFSET 0.000000 8.688499 0.000000
								}
							}
						}
						JOINT newVegas:Left_CapeA
						{
							OFFSET 5.115639 -8.608795 -10.395809
							CHANNELS 3 Xrotation Yrotation Zrotation
							JOINT newVegas:Left_CapeA1
							{
								OFFSET 0.000000 -8.688499 0.000000
								CHANNELS 3 Xrotation Yrotation Zrotation
								End Site
								{
									OFFSET 0.000000 8.688499 0.000000
								}
							}
						}
					}
				}
				JOINT newVegas:RightShoulder
				{
					OFFSET -15.263000 10.923401 -0.547700
					CHANNELS 3 Xrotation Yrotation Zrotation
					JOINT newVegas:RightArm
					{
						OFFSET -25.438599 -2.830597 -13.032500
						CHANNELS 3 Xrotation Yrotation Zrotation
						JOINT newVegas:RightForeArm
						{
							OFFSET -29.960503 0.000000 0.000000
							CHANNELS 3 Xrotation Yrotation Zrotation
							JOINT newVegas:RightHand
							{
								OFFSET -27.849251 0.000000 0.000000
								CHANNELS 3 Xrotation Yrotation Zrotation
								JOINT newVegas:RightHandThumb1
								{
									OFFSET -4.487587 -3.305161 6.305391
									CHANNELS 3 Xrotation Yrotation Zrotation
									JOINT newVegas:RightHandThumb2
									{
										OFFSET -5.480453 -3.164139 3.164143
										CHANNELS 3 Xrotation Yrotation Zrotation
										JOINT newVegas:RightHandThumb3
										{
											OFFSET -5.159721 -2.978973 2.978967
											CHANNELS 3 Xrotation Yrotation Zrotation
											End Site
											{
												OFFSET -2.494507 5.926697 1.738678
											}
										}
									}
								}
								JOINT newVegas:RightHandIndex1
								{
									OFFSET -18.578728 -0.527832 5.208049
									CHANNELS 3 Xrotation Yrotation Zrotation
									JOINT newVegas:RightHandIndex2
									{
										OFFSET -3.192009 0.000000 0.000000
										CHANNELS 3 Xrotation Yrotation Zrotation
										JOINT newVegas:RightHandIndex3
										{
											OFFSET -3.835129 0.000000 0.000000
											CHANNELS 3 Xrotation Yrotation Zrotation
											End Site
											{
												OFFSET 0.034599 3.816971 0.371180
											}
										}
									}
								}
								JOINT newVegas:RightHandMiddle1
								{
									OFFSET -18.476105 0.000000 0.000000
									CHANNELS 3 Xrotation Yrotation Zrotation
									JOINT newVegas:RightHandMiddle2
									{
										OFFSET -3.324875 0.000000 0.000000
										CHANNELS 3 Xrotation Yrotation Zrotation
										JOINT newVegas:RightHandMiddle3
										{
											OFFSET -4.596550 0.000000 0.000000
											CHANNELS 3 Xrotation Yrotation Zrotation
											End Site
											{
												OFFSET -0.057701 4.578827 0.399218
											}
										}
									}
								}
								JOINT newVegas:RightHandRing1
								{
									OFFSET -17.732719 0.121887 -4.201567
									CHANNELS 3 Xrotation Yrotation Zrotation
									JOINT newVegas:RightHandRing2
									{
										OFFSET -2.733170 0.000000 0.000000
										CHANNELS 3 Xrotation Yrotation Zrotation
										JOINT newVegas:RightHandRing3
										{
											OFFSET -3.178268 0.000000 0.000000
											CHANNELS 3 Xrotation Yrotation Zrotation
											End Site
											{
												OFFSET -0.119102 3.170624 0.185394
											}
										}
									}
								}
								JOINT newVegas:RightHandPinky1
								{
									OFFSET -15.989624 -0.606689 -7.535461
									CHANNELS 3 Xrotation Yrotation Zrotation
									JOINT newVegas:RightHandPinky2
									{
										OFFSET -2.538986 0.000000 0.000000
										CHANNELS 3 Xrotation Yrotation Zrotation
										JOINT newVegas:RightHandPinky3
										{
											OFFSET -2.593102 0.000000 0.000000
											CHANNELS 3 Xrotation Yrotation Zrotation
											End Site
											{
												OFFSET 0.150902 2.584198 0.152708
											}
										}
									}
								}
							}
							JOINT newVegas:Right_CapeC
							{
								OFFSET -15.715958 -8.608795 -6.935905
								CHANNELS 3 Xrotation Yrotation Zrotation
								JOINT newVegas:Right_CapeC1
								{
									OFFSET 0.000000 -8.688499 0.000000
									CHANNELS 3 Xrotation Yrotation Zrotation
									End Site
									{
										OFFSET 0.000000 8.688499 0.000000
									}
								}
							}
							JOINT newVegas:Right_Sleeve
							{
								OFFSET -0.267448 -0.649994 0.577675
								CHANNELS 3 Xrotation Yrotation Zrotation
								End Site
								{
									OFFSET 0.000000 15.991302 0.000000
								}
							}
						}
						JOINT newVegas:Right_CapeA
						{
							OFFSET -5.115540 -8.608795 -10.395824
							CHANNELS 3 Xrotation Yrotation Zrotation
							JOINT newVegas:Right_CapeA1
							{
								OFFSET 0.000000 -8.688499 0.000000
								CHANNELS 3 Xrotation Yrotation Zrotation
								End Site
								{
									OFFSET 0.000000 8.688499 0.000000
								}
							}
						}
						JOINT newVegas:Right_CapeB
						{
							OFFSET -26.118187 -8.608795 -7.079266
							CHANNELS 3 Xrotation Yrotation Zrotation
							JOINT newVegas:Right_CapeB1
							{
								OFFSET 0.000000 -8.688499 0.000000
								CHANNELS 3 Xrotation Yrotation Zrotation
								End Site
								{
									OFFSET 0.000000 8.688499 0.000000
								}
							}
						}
					}
				}
				JOINT newVegas:Left_Collar
				{
					OFFSET 18.625099 8.655502 8.828100
					CHANNELS 3 Xrotation Yrotation Zrotation
					JOINT newVegas:Left_Collar1
					{
						OFFSET 14.783401 10.540405 -1.259500
						CHANNELS 3 Xrotation Yrotation Zrotation
						End Site
						{
							OFFSET 0.000000 18.199875 0.000000
						}
					}
				}
				JOINT newVegas:Collar_Back
				{
					OFFSET 0.000000 15.630707 -20.132601
					CHANNELS 3 Xrotation Yrotation Zrotation
					End Site
					{
						OFFSET 0.000000 22.523010 0.000000
					}
				}
				JOINT newVegas:Left_Peck
				{
					OFFSET 17.239599 -5.132599 25.482599
					CHANNELS 3 Xrotation Yrotation Zrotation
					End Site
					{
						OFFSET 0.000000 22.523010 0.000000
					}
				}
				JOINT newVegas:Right_Peck
				{
					OFFSET -17.239599 -5.132202 25.482599
					CHANNELS 3 Xrotation Yrotation Zrotation
					End Site
					{
						OFFSET 0.000000 22.523010 0.000000
					}
				}
				JOINT newVegas:Right_Collar
				{
					OFFSET -18.625099 8.655792 8.828100
					CHANNELS 3 Xrotation Yrotation Zrotation
					JOINT newVegas:Right_Collar1
					{
						OFFSET -14.783401 10.539993 -1.259500
						CHANNELS 3 Xrotation Yrotation Zrotation
						End Site
						{
							OFFSET 0.000000 18.199631 0.000000
						}
					}
				}
			}
		}
		JOINT newVegas:Belly
		{
			OFFSET 0.000000 -6.540398 9.014299
			CHANNELS 3 Xrotation Yrotation Zrotation
			End Site
			{
				OFFSET 0.000000 11.566666 0.000000
			}
		}
	}
	JOINT newVegas:ElvisFacialAnim_Joint
	{
		OFFSET 1.000000 -95.330101 -8.825800
		CHANNELS 3 Xrotation Yrotation Zrotation
		End Site
		{
			OFFSET 0.000000 35.315800 0.000000
		}
	}
}
MOTION
Frames: 4
Frame Time: 0.016667
-2.529503 83.444214 1.048891 9.511085 -61.528175 10.139692 -0.000000 -0.000001 -0.000000 -41.485620 6.898396 29.341618 42.476380 -8.855470 1.133462 -6.285690 -1.073339 -21.274702 -0.000000 0.000000 0.000000 0.000000 -0.000002 0.000000 -31.349243 -15.813430 -39.178115 41.611524 6.255672 -4.187889 -15.613015 -2.030436 28.893148 -0.000000 -0.000000 -0.000000 -0.000000 -0.000000 -0.000002 15.063788 -0.418059 -4.284001 5.872407 0.563923 -2.798210 5.868714 0.648185 -2.860163 -0.718911 0.306356 0.742058 -0.718886 0.306349 0.742049 -0.000000 0.000001 -0.000000 -0.718815 0.306358 0.742053 -0.718957 0.306347 0.742057 -0.000003 -0.000002 0.000001 -0.000000 0.000001 -0.000001 1.828098 -3.192691 -12.271568 -39.387416 26.350496 -34.911098 0.429376 -46.808451 0.416218 -10.315072 -0.130697 0.363022 40.109951 -15.297175 -0.360492 5.639820 28.097940 11.338831 0.000000 0.000000 -0.000003 6.882256 2.840065 -61.140418 8.247994 7.640066 -89.897878 -0.000002 0.000000 0.000001 -2.345516 4.688853 -62.655231 8.754144 9.897054 -87.051307 0.000002 -0.000001 -0.000001 -9.042446 10.045649 -60.766192 8.524107 9.508785 -66.893056 -0.000001 -0.000000 -0.000001 -17.946897 14.754995 -51.485864 8.868427 8.667023 -84.811996 0.000001 -0.000002 0.000001 0.000000 0.000002 -0.000001 0.000000 0.000002 -0.000001 -0.000001 0.000002 -0.000001 -0.000001 -0.000001 0.000004 -0.000000 -0.000002 0.000001 -0.000001 -0.000001 0.000004 -0.000002 -0.000001 0.000003 0.632604 7.257349 8.700391 7.935999 -9.680139 53.429886 -22.867429 36.194675 17.955435 -27.369932 10.432884 -17.813541 -2.346180 -6.100554 10.731435 2.364052 -23.806315 -8.771059 -0.000000 -0.000002 -0.000001 -0.054743 0.532101 0.738738 0.019771 -0.087321 5.078502 0.000000 -0.000001 0.000003 0.348267 -5.918519 2.583830 1.432608 -4.204229 24.052105 -0.000000 0.000001 0.000001 1.205831 -11.756064 4.154788 1.794840 -3.771871 26.865400 0.000001 0.000002 -0.000001 2.126201 -19.166880 11.319976 3.354759 -2.122229 18.828554 -0.000000 -0.000000 0.000002 -0.000000 -0.000002 -0.000003 -0.000002 -0.000003 -0.000004 -0.000000 -0.000002 -0.000003 -0.000001 0.000002 0.000003 -0.000001 0.000003 -0.000000 -0.000001 0.000002 0.000003 -0.000000 0.000003 0.000002 -0.000000 0.000001 0.000000 -0.000000 0.000001 0.000000 -0.000000 0.000001 0.000000 -0.000000 0.000001 0.000000 -0.000000 0.000001 0.000000 -0.000000 0.000001 0.000000 -0.000000 0.000001 0.000000 -0.000002 0.000000 -0.000000 -0.000000 -0.000001 -0.000000 
-2.703629 83.839081 2.099198 9.319055 -61.805262 9.852712 -0.000000 0.000001 -0.000000 -40.785559 7.484193 28.965108 43.016805 -8.657967 1.149228 -7.465044 -1.036530 -20.595057 0.000000 -0.000000 0.000000 0.000001 0.000001 -0.000000 -30.031024 -14.460064 -38.409511 40.965241 4.277753 -3.843626 -13.404713 -2.341086 28.897345 0.000000 -0.000000 0.000000 0.000001 0.000000 -0.000002 15.060161 -0.441989 -4.285357 5.808924 0.512826 -2.771126 5.805194 0.597259 -2.833454 -0.719556 0.326114 0.737113 -0.719536 0.326110 0.737112 -0.000003 -0.000000 -0.000000 -0.719613 0.326103 0.737115 -0.719460 0.326099 0.737117 -0.000003 0.000000 0.000001 -0.000003 -0.000000 -0.000001 1.811774 -3.211861 -12.344137 -39.504113 26.319821 -34.529325 1.101665 -46.417931 0.952179 -9.885018 0.827924 1.334641 40.109948 -15.297175 -0.360495 5.639814 28.097943 11.338825 0.000000 -0.000000 -0.000005 6.883848 2.854649 -61.141955 8.247996 7.640065 -89.897878 -0.000003 -0.000001 0.000001 -2.345674 4.688768 -62.645266 8.754110 9.897061 -87.051348 -0.000001 0.000001 -0.000000 -9.042447 10.045650 -60.766192 8.524025 9.508668 -66.885823 -0.000003 0.000003 0.000001 -17.946899 14.754996 -51.485864 8.868214 8.667077 -84.803834 0.000001 0.000000 -0.000002 0.000003 0.000004 -0.000002 0.000003 0.000004 -0.000002 0.000002 0.000004 -0.000002 0.000001 0.000001 -0.000003 0.000001 -0.000000 -0.000005 0.000001 0.000001 -0.000003 0.000000 0.000002 -0.000004 0.692432 7.427227 8.935624 5.481162 -8.784172 52.938781 -21.606678 32.865641 15.936074 -24.516482 8.994983 -17.062789 -4.116513 -6.706653 9.307962 1.886923 -23.619574 -9.140369 0.000000 -0.000001 0.000001 -0.010636 0.533237 -1.327958 0.017482 -0.087292 5.720671 -0.000001 0.000001 0.000004 0.409168 -5.946825 2.284652 1.424253 -4.181324 21.464428 0.000000 0.000002 -0.000002 0.746815 -11.971096 3.731584 1.819263 -3.840917 25.204776 0.000000 0.000001 0.000000 1.682358 -18.956609 9.983744 3.331139 -2.133639 16.242140 0.000001 -0.000000 0.000001 0.000001 0.000000 0.000003 0.000001 0.000000 -0.000001 0.000001 0.000000 0.000002 -0.000002 -0.000001 -0.000000 -0.000002 0.000000 0.000001 -0.000002 -0.000001 -0.000000 -0.000002 -0.000000 0.000001 -0.000001 0.000001 -0.000003 -0.000001 0.000001 -0.000003 -0.000001 0.000001 -0.000003 -0.000001 0.000001 -0.000003 -0.000001 0.000001 -0.000003 -0.000001 0.000001 -0.000003 -0.000001 0.000001 -0.000003 -0.000002 -0.000000 -0.000000 -0.000000 0.000001 -0.000000 
-2.880560 84.232178 3.153250 9.120261 -62.084644 9.560777 -0.000001 0.000001 -0.000000 -40.020561 8.076346 28.556999 43.461901 -8.418552 1.169044 -8.610367 -1.018519 -19.938710 -0.000000 -0.000000 0.000000 -0.000000 0.000004 0.000001 -28.795220 -13.077249 -37.709174 40.401993 2.277919 -3.492162 -11.096131 -2.647451 28.828289 0.000000 0.000000 -0.000000 0.000001 -0.000000 0.000000 15.048519 -0.512465 -4.256919 5.633795 0.369658 -2.696478 5.629852 0.454782 -2.759859 -0.721645 0.381417 0.723051 -0.721669 0.381420 0.723045 0.000001 0.000000 0.000000 -0.721726 0.381408 0.723054 -0.721562 0.381422 0.723047 -0.000000 -0.000002 0.000000 0.000001 0.000000 -0.000000 1.851097 -3.205588 -12.196502 -39.716601 26.246979 -34.186511 2.759061 -45.717431 2.309616 -9.601691 1.846968 2.522817 40.109941 -15.297172 -0.360491 5.639817 28.097938 11.338841 0.000003 -0.000002 -0.000005 6.885321 2.867596 -61.143232 8.247995 7.640064 -89.897878 -0.000001 0.000001 0.000001 -2.345723 4.688742 -62.636373 8.754124 9.897063 -87.051246 0.000000 -0.000001 0.000002 -9.042448 10.045648 -60.766185 8.523970 9.508521 -66.879327 -0.000001 0.000001 0.000001 -17.946896 14.754996 -51.485857 8.868044 8.667094 -84.796696 -0.000002 -0.000002 -0.000001 0.000001 -0.000004 0.000003 0.000001 -0.000004 0.000003 0.000000 -0.000004 0.000003 0.000001 -0.000001 -0.000003 0.000002 -0.000001 -0.000006 0.000001 -0.000001 -0.000003 0.000000 -0.000001 -0.000004 0.772931 7.546814 9.119214 2.943609 -7.711103 52.563466 -20.404022 29.266111 13.879041 -21.562926 7.631764 -16.206044 -6.237930 -7.289026 7.642134 1.335642 -23.383233 -9.554172 0.000002 -0.000001 0.000001 0.036206 0.531752 -3.691433 0.018931 -0.086960 6.453129 0.000000 -0.000001 -0.000001 0.478651 -5.980254 1.942308 1.420339 -4.160100 18.500769 -0.000000 0.000001 -0.000002 0.223200 -12.207952 3.248205 1.839697 -3.913895 23.324288 -0.000000 -0.000001 -0.000001 1.189577 -18.704698 8.461775 3.307100 -2.146757 13.290746 -0.000000 0.000003 -0.000002 0.000001 -0.000001 0.000001 -0.000003 0.000000 0.000003 0.000001 -0.000001 0.000000 -0.000000 -0.000003 -0.000001 -0.000000 -0.000002 -0.000003 -0.000000 -0.000003 -0.000001 -0.000000 -0.000002 -0.000003 0.000001 0.000000 0.000002 0.000001 0.000000 0.000002 0.000001 0.000000 0.000002 0.000001 0.000000 0.000002 0.000001 0.000000 0.000002 0.000001 0.000000 0.000002 0.000001 0.000000 0.000002 -0.000001 0.000000 -0.000000 -0.000001 0.000001 -0.000000 
-3.059911 84.615234 4.211668 8.926595 -62.358261 9.270068 0.000000 -0.000001 0.000000 -39.218878 8.659054 28.121970 43.844863 -8.145503 1.191648 -9.732188 -1.016642 -19.303515 0.000000 0.000002 -0.000000 0.000000 0.000001 0.000002 -27.660564 -11.552129 -36.999784 40.022375 0.259535 -3.128555 -8.754195 -2.942841 28.628425 -0.000000 0.000000 -0.000000 -0.000000 0.000000 0.000001 15.027318 -0.620441 -4.202657 5.371680 0.150692 -2.585289 5.367422 0.236845 -2.650276 -0.725317 0.466261 0.701102 -0.725314 0.466251 0.701105 0.000002 0.000001 -0.000001 -0.725317 0.466260 0.701102 -0.725306 0.466241 0.701106 0.000001 0.000002 -0.000001 0.000002 0.000001 -0.000002 1.843144 -3.270740 -12.215997 -40.079031 26.019756 -33.554209 4.817950 -44.880493 3.995141 -9.298817 2.592863 3.380248 40.109948 -15.297175 -0.360493 5.639817 28.097943 11.338835 0.000003 -0.000002 -0.000010 6.886551 2.878937 -61.144338 8.247996 7.640064 -89.897878 -0.000000 0.000002 -0.000000 -2.345681 4.688642 -62.628491 8.754126 9.897083 -87.051137 0.000004 0.000002 -0.000001 -9.042446 10.045653 -60.766192 8.523901 9.508399 -66.873604 -0.000002 0.000003 0.000002 -17.946894 14.754996 -51.485857 8.867853 8.667177 -84.790337 0.000000 -0.000001 -0.000002 0.000003 0.000001 -0.000004 0.000003 0.000001 -0.000004 0.000002 0.000001 -0.000004 -0.000001 0.000001 0.000001 -0.000001 -0.000000 -0.000002 -0.000001 0.000001 0.000001 -0.000002 0.000001 0.000000 0.851986 7.665279 9.321646 0.526185 -6.652011 52.259089 -19.353572 25.785900 11.962588 -18.611750 6.402530 -15.306789 -8.268310 -7.739947 6.081489 0.815456 -23.164149 -9.941023 0.000001 0.000000 0.000001 0.081625 0.527681 -5.928361 0.019949 -0.086702 7.147209 -0.000002 -0.000000 0.000002 0.550283 -6.015973 1.586687 1.421999 -4.149987 15.428272 0.000001 -0.000001 0.000001 -0.337125 -12.451468 2.730652 1.855728 -3.992478 21.326391 -0.000000 0.000002 0.000002 0.689164 -18.427442 6.871370 3.285320 -2.163371 10.191942 0.000000 -0.000002 0.000001 0.000003 0.000001 -0.000000 0.000001 -0.000000 -0.000003 0.000003 0.000001 -0.000000 -0.000001 0.000003 0.000001 -0.000000 0.000003 0.000001 -0.000001 0.000003 0.000001 -0.000000 0.000003 0.000003 -0.000000 0.000001 0.000001 -0.000000 0.000001 0.000001 -0.000000 0.000001 0.000001 -0.000000 0.000001 0.000001 -0.000000 0.000001 0.000001 -0.000000 0.000001 0.000001 -0.000000 0.000001 0.000001 -0.000002 -0.000000 0.000001 0.000000 -0.000001 0.000000 
